Coordinates
version=1
nRows=21
nColumns=22
inDegrees=yes

Units are S.I. units (second, meters, Newtons, ...)
If the header above contains a line with 'inDegrees', this indicates whether rotational values are in degrees (yes) or radians (no).

endheader
time	pelvis_tilt	pelvis_list	pelvis_rotation	pelvis_tx	pelvis_ty	pelvis_tz	hip_flexion_r	hip_adduction_r	hip_rotation_r	knee_angle_r	ankle_angle_r	subtalar_angle_r	hip_flexion_l	hip_adduction_l	hip_rotation_l	knee_angle_l	ankle_angle_l	subtalar_angle_l	lumbar_extension	lumbar_bending	lumbar_rotation
      1.57000000	      7.97961787	     -1.25129672	     73.68819215	      0.95423530	      0.91491037	      0.44931968	     -1.34117541	      2.63215350	     -8.34854115	    -17.66479778	     14.99241641	      6.84335168	     32.21965031	     -2.73175372	     -1.13827520	    -58.51125820	      3.24008363	     -7.04657739	    -12.33774255	      4.05623205	      2.48374436
      1.58000000	      7.93670847	     -1.11066419	     74.01028465	      0.95556654	      0.91454391	      0.44083161	     -2.53640137	      2.57163054	     -8.68106359	    -16.82377906	     15.15996667	      6.94248602	     32.69201391	     -3.05280712	     -1.65738779	    -55.55912652	      3.48905780	     -7.26279141	    -12.42888621	      3.88964483	      2.95649370
      1.59000000	      7.91453444	     -1.00292556	     74.35093426	      0.95678116	      0.91396097	      0.43222512	     -3.72304193	      2.54782142	     -9.03111533	    -15.95982685	     15.31007165	      7.06355833	     33.08321729	     -3.40224452	     -2.12565212	    -52.43504945	      3.63483625	     -7.51035076	    -12.48254476	      3.75944064	      3.35018255
      1.60000000	      7.91441280	     -0.92990241	     74.70743866	      0.95789347	      0.91314802	      0.42350101	     -4.89065414	      2.56408636	     -9.39453423	    -15.08927660	     15.44188529	      7.20670688	     33.39874210	     -3.78057393	     -2.56085921	    -49.16007707	      3.67140965	     -7.77733041	    -12.49417651	      3.66337222	      3.66973279
      1.61000000	      7.93862981	     -0.88543470	     75.07689311	      0.95890372	      0.91211249	      0.41463943	     -6.04167306	      2.61899079	     -9.76166171	    -14.22118437	     15.55214630	      7.37335269	     33.63481863	     -4.19085092	     -2.99581911	    -45.76475004	      3.60501634	     -8.05946246	    -12.46844149	      3.60318353	      3.93138646
      1.62000000	      7.99105406	     -0.87645213	     75.44748138	      0.95985948	      0.91084064	      0.40563061	     -7.16202956	      2.71758466	    -10.11973049	    -13.37254321	     15.63814841	      7.55516479	     33.80367467	     -4.64763531	     -3.47332948	    -42.28670922	      3.44704141	     -8.33578492	    -12.39320360	      3.57630293	      4.15527312
      1.63000000	      8.07316247	     -0.89637889	     75.80660156	      0.96077933	      0.90934610	      0.39645049	     -8.25331576	      2.85617365	    -10.45381552	    -12.55344095	     15.69771717	      7.74578527	     33.90450476	     -5.15920011	     -4.05793621	    -38.77919364	      3.22227863	     -8.58848047	    -12.27174264	      3.58171456	      4.35974413
      1.64000000	      8.18490589	     -0.93025579	     76.13997781	      0.96167941	      0.90764864	      0.38707009	     -9.32591680	      3.02453670	    -10.74575778	    -11.77733429	     15.74910038	      7.95442630	     33.93222136	     -5.72867179	     -4.82505914	    -35.30736390	      2.99224611	     -8.80978043	    -12.11541368	      3.61214107	      4.55347838
      1.65000000	      8.32059211	     -0.97610538	     76.43448481	      0.96255708	      0.90575808	      0.37747644	    -10.36919367	      3.20687046	    -10.99215630	    -11.06493328	     15.78780204	      8.16793949	     33.90288581	     -6.34695166	     -5.83029924	    -31.95168710	      2.78722971	     -8.97681019	    -11.92342330	      3.65921093	      4.76332006
      1.66000000	      8.47458600	     -1.03765263	     76.68135094	      0.96338802	      0.90367418	      0.36767101	    -11.35958783	      3.38775610	    -11.18195778	    -10.44899100	     15.82448651	      8.37305802	     33.84706951	     -7.00013390	     -7.10489654	    -28.81185147	      2.66143193	     -9.07350966	    -11.69045073	      3.72071665	      4.99835918
      1.67000000	      8.63405040	     -1.09381875	     76.88009575	      0.96414530	      0.90144542	      0.35762807	    -12.31578886	      3.54157403	    -11.31828075	     -9.93330738	     15.87771310	      8.58585205	     33.76769317	     -7.65884088	     -8.65275773	    -25.98815756	      2.68234678	     -9.10845214	    -11.43593127	      3.77769008	      5.25049624
      1.68000000	      8.78756975	     -1.13977944	     77.03968944	      0.96478418	      0.89911259	      0.34735882	    -13.22934081	      3.65025380	    -11.40348632	     -9.53591604	     15.93524080	      8.81104198	     33.68844232	     -8.29703889	    -10.42945057	    -23.57604595	      2.86405512	     -9.10050191	    -11.16504131	      3.82064625	      5.49156235
      1.69000000	      8.93417766	     -1.20516155	     77.13493098	      0.96533233	      0.89668360	      0.33691900	    -14.04248144	      3.70670186	    -11.40966359	     -9.29843653	     15.98512162	      9.01785835	     33.66423300	     -8.93790059	    -12.39016946	    -21.66814520	      3.18827900	     -9.09247377	    -10.85387775	      3.85072071	      5.79671000
      1.70000000	      9.07786835	     -1.30546296	     77.17260401	      0.96580945	      0.89417659	      0.32632349	    -14.74072947	      3.72111059	    -11.30527455	     -9.21670849	     16.05049938	      9.20005664	     33.73499156	     -9.60200537	    -14.45811585	    -20.34676912	      3.63870883	     -9.13929172	    -10.48687189	      3.87212979	      6.15517918
      1.71000000	      9.20056061	     -1.36574127	     77.18079427	      0.96617051	      0.89176092	      0.31551840	    -15.41069193	      3.66131144	    -11.13923384	     -9.27364468	     16.06343759	      9.43213730	     33.81292279	    -10.26144859	    -16.60583566	    -19.61731968	      4.14783316	     -9.36085611	    -10.14223922	      3.84873485	      6.47415042
      1.72000000	      9.31404678	     -1.45737391	     77.15111802	      0.96648987	      0.88936764	      0.30452428	    -15.97852954	      3.56106651	    -10.86808488	     -9.46779812	     16.04473270	      9.65999085	     33.98394099	    -10.97179526	    -18.77258924	    -19.51150006	      4.65227066	     -9.74765510	     -9.73824547	      3.80158926	      6.82671464
      1.73000000	      9.40236045	     -1.52740209	     77.10396124	      0.96670629	      0.88713000	      0.29328101	    -16.50009836	      3.39304484	    -10.55145571	     -9.79490145	     15.93524255	      9.95497317	     34.16019661	    -11.70276191	    -20.93509300	    -19.95586472	      5.07846832	    -10.50479515	     -9.33151812	      3.70508545	      7.17369752
      1.74000000	      9.46331136	     -1.60492756	     77.06169866	      0.96681740	      0.88502361	      0.28176517	    -16.94638417	      3.17323147	    -10.20625579	    -10.25192587	     15.72808859	     10.25780152	     34.36703985	    -12.45184800	    -23.02923702	    -20.89108679	      5.36872091	    -11.47457662	     -8.87667425	      3.56318306	      7.48985999
      1.75000000	      9.48137359	     -1.68123565	     77.04807851	      0.96675398	      0.88310921	      0.26996222	    -17.32681029	      2.89439458	     -9.83968391	    -10.82753768	     15.41331491	     10.58684673	     34.56202763	    -13.16921468	    -25.01116622	    -22.17450408	      5.46177364	    -12.65859761	     -8.38412138	      3.36352979	      7.73125349
      1.76000000	      9.43500336	     -1.75831926	     77.10314365	      0.96642929	      0.88140503	      0.25786489	    -17.63696941	      2.55021679	     -9.49559756	    -11.51493568	     14.98590875	     10.93520701	     34.74886949	    -13.78042133	    -26.76934451	    -23.69354638	      5.34460575	    -13.98638135	     -7.84551808	      3.08638167	      7.87857821
      1.77000000	      9.30643612	     -1.84352025	     77.26116325	      0.96570382	      0.87995354	      0.24552646	    -17.82687010	      2.12902863	     -9.22664542	    -12.37544915	     14.38250346	     11.28938937	     34.92961689	    -14.19332292	    -28.17437022	    -25.30059476	      5.05240395	    -15.40346583	     -7.26159497	      2.72865032	      7.89519567
